<svg id="Layer_1" data-name="Layer 1" xmlns="http://www.w3.org/2000/svg" viewBox="0 0 500 500"><defs><style>.cls-1{fill:#f4fafb;}.cls-2{fill:#21b3de;}</style></defs><path class="cls-1" d="M35,261q0-8.76,0-17.54c2-6.54.55-13.36,1.72-20,1.58-8.88,3-17.8,4.43-26.71q3.75-11.68,7.48-23.37a326.08,326.08,0,0,1,25.18-46.78,35.72,35.72,0,0,0,7.25-9.87A62.82,62.82,0,0,0,92.89,103.4l11.24-10.78c5-4.08,10.21-7.81,14.59-12.56a35.94,35.94,0,0,0,8.8-6.33C142.44,64,158.27,56,174.45,48.58l22.09-6.93,24.65-5.07,4.71-.46.55.12L227,36l2.66-.37,1.1-.16a271.09,271.09,0,0,1,60.69,3.31c7.7,2.3,15.37,4.73,23.32,6.11L340.6,55.21c6.56,4.7,14,7.84,21,11.7l.29.25.37-.11a3.49,3.49,0,0,0,2.89,2.07,6.25,6.25,0,0,0,4.16,2.6,3.73,3.73,0,0,0,2.8,2.09l.25.3.38,0a3.65,3.65,0,0,0,2.92,2.22h0a8.15,8.15,0,0,0,4.64,3.58l0,0a11.75,11.75,0,0,0,5.91,4.71,6,6,0,0,0,3.93,3.36,11.13,11.13,0,0,0,5.41,4.84l-.05,0a7.4,7.4,0,0,0,4.78,4.54,7.73,7.73,0,0,0,3.39,3.62c2.84,4.52,6.84,8,10.66,11.59l1.11,1.26a8.17,8.17,0,0,0,3.58,4.54l1.1,1.31c1.32,2.86,2.79,5.62,5.66,7.29h-.12c1.46,4.45,4.37,8,7.38,11.4h0a10.65,10.65,0,0,0,3.54,5.84,2.1,2.1,0,0,0,1.28,2.34l8.93,18.95c7.66,16.28,11.83,33.64,15.79,51.06.08.85.15,1.69.23,2.53q1.09,12.22,2.2,24.45-.21,11.72-.41,23.42c-.37,1.59-1.12,3.13-.59,4.83-.85,1.84-1.51,3.7-.64,5.74a7.19,7.19,0,0,0-.85,4.72,1.53,1.53,0,0,0-.21,2.28,9.94,9.94,0,0,0-1.1,5.84q-3,11.67-6,23.34l-.3,1.68c-3.65,7-6.16,14.42-8.88,21.77l-13,24.56-17.64,24.49a3.28,3.28,0,0,0-2.26,2.59,7,7,0,0,0-3.65,4.41l-1.13,1.05-13,13a3.23,3.23,0,0,0-2.24,2.3c-2.61.75-4.2,2.71-5.69,4.78l-1.31,1.19A259.1,259.1,0,0,0,364,431.75l-25.78,14a77.31,77.31,0,0,0-17.49,7.18l-5.8,1.79-23.49,6.37-22.21,3.15-25.73.77c-10-1.13-20.16-1.85-30.12-3.47-21.5-3.48-41.64-11.22-61.22-20.52a288.72,288.72,0,0,1-48-33.66.74.74,0,0,0-.72-.46c-14.31-14.89-27.75-30.48-38.78-48q-4.22-7.45-8.44-14.92l0,0-12-30.34C40,297,36.36,280.32,35.87,263.08A6.46,6.46,0,0,0,35,261ZM219.78,325.3q0,21.33,0,42.66c0,8,.77,8.81,8.58,8.83q15.79,0,31.59,0c7.59,0,8.33-.76,8.34-8.44,0-28.44.16-56.89-.13-85.32-.05-5.55,1.7-7,7-6.76,8.56.4,17.17-.1,25.74.19,5.22.17,7.44-1.56,7.3-7-.27-11.1-.23-22.21,0-33.31.09-5-1.76-7.06-6.84-6.95-9.35.22-18.72.06-28.08.06-2.35,0-5,.32-4.9-3.27.23-8.16-.69-16.35.59-24.49.9-5.76,4.15-8.9,9.94-9.82,8-1.26,16-.54,23.93-.56,5,0,7.16-2.2,7.15-7,0-10.33,0-20.65,0-31,0-4.4-1.89-6.86-6.72-6.8-10.73.15-21.47-.25-32.18.14-26.19.93-45.24,17.53-50.06,43.15-2.11,11.21-1.06,22.53-1.07,33.8,0,4.71-1.5,6.09-6.05,5.9-7.59-.32-15.21,0-22.81-.1-4.14,0-6.12,1.91-6.12,6,0,11.69,0,23.38,0,35.06,0,4.52,2.22,6.19,6.58,6.1,7.4-.16,14.83.25,22.22-.14,5-.27,6.25,1.65,6.16,6.36C219.61,296.86,219.78,311.08,219.78,325.3Z"/><path class="cls-2" d="M219.78,325.3c0-14.22-.17-28.44.09-42.66.09-4.71-1.12-6.63-6.16-6.36-7.39.39-14.82,0-22.22.14-4.36.09-6.6-1.58-6.58-6.1.05-11.68,0-23.37,0-35.06,0-4.11,2-6,6.12-6,7.6.06,15.22-.22,22.81.1,4.55.19,6.05-1.19,6.05-5.9,0-11.27-1-22.59,1.07-33.8,4.82-25.62,23.87-42.22,50.06-43.15,10.71-.39,21.45,0,32.18-.14,4.83-.06,6.71,2.4,6.72,6.8,0,10.33,0,20.65,0,31,0,4.78-2.11,7-7.15,7-8,0-16-.7-23.93.56-5.79.92-9,4.06-9.94,9.82-1.28,8.14-.36,16.33-.59,24.49-.1,3.59,2.55,3.26,4.9,3.27,9.36,0,18.73.16,28.08-.06,5.08-.11,6.93,1.95,6.84,6.95-.22,11.1-.26,22.21,0,33.31.14,5.45-2.08,7.18-7.3,7-8.57-.29-17.18.21-25.74-.19-5.26-.24-7,1.21-7,6.76.29,28.43.14,56.88.13,85.32,0,7.68-.75,8.42-8.34,8.44q-15.8,0-31.59,0c-7.81,0-8.57-.79-8.58-8.83Q219.75,346.63,219.78,325.3Z"/></svg>