<svg id="Layer_1" data-name="Layer 1" xmlns="http://www.w3.org/2000/svg" viewBox="0 0 500 500"><defs><style>.cls-1{fill:#f4fafb;}.cls-2{fill:#de21b3;}</style></defs><path class="cls-1" d="M465,244l-.42,23.35c-2.56,10.16-2.63,20.75-5.52,30.87-1.49,5.22-2.64,10.53-3.95,15.8l-10.2,25.89a2.15,2.15,0,0,0-1.18,2.34,2.44,2.44,0,0,0-1.17,2.32l-.26.25.14.32L423.9,375.08a4.87,4.87,0,0,0-2.36,3.53,12.34,12.34,0,0,0-5,6.46l.06.22a8.3,8.3,0,0,0-4.52,4.93,5.91,5.91,0,0,0-3.44,3.9l-19.92,19.53a11,11,0,0,0-5.83,4.73,27.53,27.53,0,0,0-9.34,7,3.51,3.51,0,0,0-2.8,1.93,162.13,162.13,0,0,0-19.47,12.11c-2.65,1.17-5.35,2.23-7.95,3.51A217.4,217.4,0,0,1,297.4,459.5c-28.35,6.75-56.89,7-85.56,2.36a1.63,1.63,0,0,0-2.29-.36l-2.24-.49-23.5-6.23-3.56-1.17-19.85-8.19c-11.33-6.28-23-12.05-33.4-19.84-7.26-5.42-14.42-11-21.62-16.47l-1.33-1.28a114.83,114.83,0,0,0-14-14c-1.41-3.75-4.88-5.88-7.11-9-5.6-7.83-11.5-15.43-17.28-23.11a.47.47,0,0,0-.15-.72L53,337.44a349.07,349.07,0,0,1-14.58-46.68l-3.12-23.45Q35.17,255.62,35,244c.12-2.3.29-4.6.34-6.89.11-5.5-1.07-11.09,1.27-16.41q2.2-11.75,4.4-23.47c4.89-17.45,11.9-34.08,19.88-50.31l0,0a4.34,4.34,0,0,0,2-3.41.69.69,0,0,0,.43-.83c3.64-4.85,7.32-9.68,9.6-15.38l-.13.05c1.44-.27,2-1.33,2.21-2.6l1.08-1.28a8.71,8.71,0,0,0,3.51-4.6h0a13.71,13.71,0,0,0,4.72-5.83,3.41,3.41,0,0,0,2.27-2.67c2.71-2.28,5.71-4.31,7-7.88a32.35,32.35,0,0,0,8.31-8.19c3-1.08,4.8-3.55,6.68-5.91a6.58,6.58,0,0,0,3.87-3.37A38.18,38.18,0,0,0,123,76.67h0a4.85,4.85,0,0,0,3.43-2.37l.06,0a3.43,3.43,0,0,0,2.82-2.16.62.62,0,0,0,.76-.3,4.17,4.17,0,0,0,3.31-2.2l.11-.08A5.28,5.28,0,0,0,137,67.3l0,0a161.05,161.05,0,0,0,18.72-10.57,2.19,2.19,0,0,0,2.35-1.19l25.8-10.37,23.41-6.21c9.24-1.16,18.44-2.64,27.71-3.4,16.54-1.35,33,0,49.44,2l2.53.32c16.78,3.75,33,9.16,49.09,15.23a2.16,2.16,0,0,0,2.38,1.18,2.43,2.43,0,0,0,2.3,1.17,2.27,2.27,0,0,0,2.42,1.14,13.09,13.09,0,0,0,6.93,3.5,2.18,2.18,0,0,0,2.39,1.21l2.25,1.38,0,0a4.11,4.11,0,0,0,3.51,2,.77.77,0,0,0,.88.4l21.47,15.09A123,123,0,0,0,394.46,92l11.83,11.53c3,5.09,7.34,9.08,11.53,13.16a42.3,42.3,0,0,0,7.84,10.48,336.8,336.8,0,0,1,25.78,48.29q3.4,10.81,6.82,21.63A315.48,315.48,0,0,1,465,244ZM249.38,365.87c15.22,0,30.45-.46,45.65.09a57.61,57.61,0,0,0,59.33-57.17c.42-31.57.74-63.18-.1-94.74-.88-33.23-26-56.58-59.23-56.6H205.49c-34.7,0-59.6,24.24-60,58.93q-.47,45.62,0,91.24c.3,33.34,24.95,57.85,58.21,58.21C219,366,234.17,365.86,249.38,365.87Z"/><path class="cls-2" d="M249.38,365.87c-15.21,0-30.43.13-45.64,0-33.26-.36-57.91-24.87-58.21-58.21q-.41-45.62,0-91.24c.36-34.69,25.26-58.92,60-58.93H295c33.21,0,58.35,23.37,59.23,56.6.84,31.56.52,63.17.1,94.74A57.61,57.61,0,0,1,295,366C279.83,365.41,264.6,365.87,249.38,365.87Zm.49-189.75c-15.8,0-31.6-.15-47.39,0-20.62.24-37.92,17-38.14,37.48q-.5,47.94,0,95.9c.16,19.45,15.66,36.23,35.06,37.34,32.13,1.83,64.35,1.32,96.49.39,24.24-.71,38.48-14.49,39.41-38.39,1.21-31.33.19-62.74.26-94.12.05-20.91-18.39-40.35-43-38.81C278.39,176.84,264.11,176.11,249.87,176.12Z"/><path class="cls-1" d="M249.87,176.12c14.24,0,28.52.72,42.7-.17,24.59-1.54,43,17.9,43,38.81-.07,31.38.95,62.79-.26,94.12-.93,23.9-15.17,37.68-39.41,38.39-32.14.93-64.36,1.44-96.49-.39-19.4-1.11-34.9-17.89-35.06-37.34q-.42-48,0-95.9c.22-20.52,17.52-37.24,38.14-37.48C218.27,176,234.07,176.12,249.87,176.12Zm53.64,86.05c0-30.32-23.37-54.17-53.25-54.27a54.25,54.25,0,0,0-54.35,53.62c-.19,29.41,24.33,53.87,54,53.89A53.08,53.08,0,0,0,303.51,262.17Zm16.07-56.23a13.41,13.41,0,0,0-13.14-13.56c-7.91-.16-13.86,5.45-14,13.2a13.32,13.32,0,0,0,13.34,13.89A13.47,13.47,0,0,0,319.58,205.94Z"/><path class="cls-2" d="M303.51,262.17a53.08,53.08,0,0,1-53.6,53.24c-29.67,0-54.19-24.48-54-53.89a54.25,54.25,0,0,1,54.35-53.62C280.14,208,303.54,231.85,303.51,262.17Zm-18.68-.77a34.84,34.84,0,1,0-35,35.38A34.94,34.94,0,0,0,284.83,261.4Z"/><path class="cls-2" d="M319.58,205.94a13.47,13.47,0,0,1-13.83,13.53,13.32,13.32,0,0,1-13.34-13.89c.17-7.75,6.12-13.36,14-13.2A13.41,13.41,0,0,1,319.58,205.94Z"/><path class="cls-1" d="M284.83,261.4a34.84,34.84,0,1,1-35-34.8A34.89,34.89,0,0,1,284.83,261.4Z"/></svg>