<svg id="Layer_1" data-name="Layer 1" xmlns="http://www.w3.org/2000/svg" viewBox="0 0 500 500"><defs><style>.cls-1{fill:#f4fafb;}.cls-2{fill:#a698d3;}</style></defs><rect class="cls-1" width="500" height="500"/><path class="cls-2" d="M408.24,94.68Q349.25,36,250.4,36T91.76,94.68Q32,154.08,32,251.7,32,348,91.76,406T250.4,464q98.85,0,157.84-58Q468,348,468,251.7,468,154.08,408.24,94.68ZM99.91,281.77c10.71-11.8,35,10.81,35,10.81l-1.73,18.16s-.58,4.75-8.4,9.51-11,10.59-15.06,1.94S94.06,288.21,99.91,281.77ZM197.25,384.5s-6.93,7-9.54,13-5.67,9.59-2.83-5.36S177,377.36,177,377.36s6.75,23.57-11.76,31.53c0,0-4.58,2.28-6.54,6.5s2.18-8-5.66-17.39-10.89-5.53-10.89-5.53-5.22,1.63-6.53,17.72-3.48-4.87-9.36-14.14-8.49-13.65-8.06-21.13,1.53-13.13-4.79-21.36,13.23-17.95,24.73-31.53c0,0,3.47-5.41,7.81,0s64,31.53,64,31.53S212,368.72,197.25,384.5Zm149-223.4c21.1,4,24.35,30,16,20.26-2.23-2.59-5.92-4.91-10.31-7-1.15-.41-22.43-7.81-31.93-.21l-.21-.05c2.25,5.92,1.17,11.12-.77,14.24-2.37,3.8-9.87,13.22-32.49,14.88s-21.89.72-21.89.72-2.38-.17,1.17-3.37,24.15-26.78,37.88-32.23c0,0,.85-.25,2.11-.51,2.54-.82,8.22-1.76,21.37-1.75-5.7-1.42-11.07-2.59-15.17-3.42-13.83-2.82-18.86.94-33.32,12.67s-29,37-38.76,47.2,2.86,5.64,2.86,5.64,8.16-1.37,46.94-17.83,71-9.75,88.17,2.44,39,48,18.37,34.58S343.78,233.7,337.76,233s-19.53.82-7.61,4.49,44,21.05,17.43,12.05-56.45-4.42-68.19-2.84.11,4.76.11,4.76S290.57,254,293.7,255s19.85,11.29,19.85,11.29c16.49,10.15-36.42,38.79-36.42,38.79s-10.7,7.72-2.54,5,25-12.86,34.29-18.69,6.53.27,6.53.27a63.39,63.39,0,0,0-4.17,13.41c-1.45,7.58-1.82,7.18-9.25,11.38S269.33,332.17,263.53,333s.18,1.49.18,1.49c22.31-1.63,30.66-9.89,37-11.11s5.62,2.31,5.62,2.31,0,1.62-1.63,9.75-10.52,10.29-10.52,10.29-30.67,10.84-50.5,7-56.45-21.63-73.23-29.22S150.63,311,150.63,311l-6.26-18.64s1.41-13.64,24.84-19.37,31.22,20.8,31.22,20.8,18.74-18.76-5.12-34-54.53,0-83.07,6S99.89,255,99.89,255s55.14-51.29,55.85-53.65-1.52-.66-1.52-.66-6.86,9-21,18.32-7.06-3.51-7.06-3.51l18.43-38.05s29-52.38,46.26-66.72S250.26,90,250.26,90c15.73-3.12,43-2.67,22.84-.93s-29,15.26-34.68,21.83-14.75,24.54-2.84,10.63,30.79-20.09,30.79-20.09c34.94-13.53,74.46,5.2,95.26,15.52s9.53,8.68,2.56,6.59a86.3,86.3,0,0,0-11.74-2.73c-27-3.24-51.23-1.52-60.92.76s-5.61,1.71,29.06,3.81,52.8,14.79,68.11,29,23.19,47.26,7.19,27.18S353.45,155.91,344.63,158,346.26,161.1,346.26,161.1Z"/><path class="cls-2" d="M306.21,172.68c-.32.18-.63.41-1,.61,1.06,1.71,5.48,9.83-1.88,15.44-8.26,6.29-18.58,7-20.68,3.81a4.78,4.78,0,0,0-.43-.45,65.83,65.83,0,0,1-6.19,5.65c-4.07,2.8,22.4-.13,30.35-5s7.09-13.22,5.78-17.82S306.21,172.68,306.21,172.68Z"/></svg>