<svg id="Layer_1" data-name="Layer 1" xmlns="http://www.w3.org/2000/svg" viewBox="0 0 500 500"><defs><style>.cls-1{fill:#fff;}.cls-2,.cls-3{fill:#231f20;}.cls-3{font-size:27.35px;font-family:Arial-BoldMT, Arial;font-weight:700;}</style></defs><circle class="cls-1" cx="250" cy="250" r="250"/><path class="cls-2" d="M386.13,225.77c-.1.06-.2.15-.31.22.36.62,1.87,3.54-.48,5.61-2.63,2.32-6,2.62-6.7,1.49l-.14-.16a21.79,21.79,0,0,1-2,2.08c-1.3,1,7.29-.17,9.84-2s2.19-4.83,1.73-6.49A1.26,1.26,0,0,0,386.13,225.77Z"/><path class="cls-2" d="M425.89,211.58c-6-28.35-48.08-67.06-90-16.56s-33.47,90-33.47,90,2.73,9.34-20.95,18.33c-13.29,5.05-37.64,5.46-48.4-3.77a35.62,35.62,0,0,1-6.34-7.59s46.36-41.43,53.54-70.33-13.25-33-25.82-31.86-49.92,11.36-67.28,38.59-14.51,49.62-6.52,69.59c.42,1.06.91,2.12,1.44,3.17l-22.4,22.14s-53.12,52.42-40.11-2.53c6.8-28.73,16.76-57,24.55-77.13A362.09,362.09,0,0,0,167,149.54c2.87-28.13,2.31-55.09-9.93-56.92-26.12-3.89-47.23,115.59-47.23,115.59S82.1,341.37,81,363.6s-.51,32.17,4.5,35.5,33.76-12,49.88-22.77c16.46-11,60.86-57.43,60.89-57.47a85,85,0,0,0,44.55,20c29.32,3.89,63.43-11.67,70.61-20,0,0,33.68,38.86,72,10S431.88,239.92,425.89,211.58ZM209.4,240.13c6.49-8.91,22.15-21.58,28.55-17.48s.18,16.37-4.2,22.73c-4.23,6.13-23,24.82-23,24.82l-.11-.07c-3.7-2.58-5.84-4.58-6.89-8.91C201.76,253.06,205.77,245.11,209.4,240.13Zm114,40.88c-1.39-3.11-5.39-12.23-3.54-14.59,3.38-4.34,11.49,3.72,11.49,3.72l-.41,6.59s-.15,1.73-2.65,3.5S324.83,284.12,323.44,281Zm29,22.11a19.55,19.55,0,0,0-3,4.77c-.8,2.19-1.76,3.5-1-1.93s-2.68-5.32-2.68-5.32,2.4,8.51-3.56,11.49a5.32,5.32,0,0,0-2.07,2.39c-.61,1.55.64-2.89-2-6.27s-3.59-1.94-3.59-1.94-1.69.61-2,6.45-1.18-1.74-3.17-5.07-2.88-4.9-2.8-7.62.39-4.76-1.74-7.71,4.16-6.58,7.78-11.56c0,0,1.09-2,2.55,0s21.1,11.08,21.1,11.08S357.12,297.32,352.45,303.12Zm63.63-50.77c-6.83-4.75-17.21-4.67-19.17-4.91s-6.35.4-2.44,1.67,14.49,7.39,5.77,4.27-18.41-1.3-22.22-.66.08,1.72.08,1.72,3.62.88,4.65,1.23,6.56,4,6.56,4c5.45,3.59-11.53,14.26-11.53,14.26s-3.42,2.85-.78,1.83,8-4.8,11-7,2.13.06,2.13.06a24.71,24.71,0,0,0-1.25,4.88c-.4,2.76-.53,2.61-2.91,4.18s-10.5,5.87-12.38,6.19.07.54.07.54c7.25-.71,9.9-3.75,11.95-4.22s1.85.8,1.85.8a27.35,27.35,0,0,1-.45,3.54,4.92,4.92,0,0,1-3.33,3.79s-9.89,4.09-16.38,2.82-18.56-7.53-24.08-10.19-6.57-4.44-6.57-4.44L334.46,270s.34-4.95,7.92-7.15,10.34,7.37,10.34,7.37,5.94-6.9-2-12.3-17.75.29-27,2.63-4.12-3.85-4.12-3.85,17.52-18.88,17.73-19.74-.5-.23-.5-.23a31.5,31.5,0,0,1-6.67,6.75c-4.52,3.47-2.33-1.23-2.33-1.23l5.68-13.89s9-19.14,14.49-24.43,19.16-7.84,19.16-7.84c5.09-1.22,14-1.2,7.43-.46s-9.31,5.69-11.11,8.1-4.59,9-.83,3.86a24.78,24.78,0,0,1,9.85-7.45c11.26-5.08,24.28,1.49,31.14,5.12s3.17,3.09.89,2.37a27.3,27.3,0,0,0-3.85-.93c-8.82-1-16.69-.27-19.82.61s-1.81.65,9.49,1.22,17.31,5.08,22.42,10.14,7.94,17,2.56,9.81-14-9.06-16.88-8.26.56,1.12.56,1.12c6.9,1.33,8.18,10.73,5.38,7.26a10.4,10.4,0,0,0-3.35-2.46s-7.36-2.8-10.46.08h0a6.42,6.42,0,0,1-.18,5.15c-.74,1.39-3.1,4.85-10.45,5.57s-7.12.38-7.12.38-.78,0,.35-1.23,7.64-9.83,12.06-11.88c0,0,.24-.09.62-.19.8-.31,2.67-.69,7-.76-1.88-.49-3.65-.87-5-1.16-4.53-.94-6.14.45-10.74,4.78s-9.12,13.56-12.22,17.31,1,2,1,2,2.64-.54,15.13-6.72,23-3.91,28.72.41S422.9,257.09,416.08,252.35Z"/><text class="cls-3" transform="translate(194.27 391.17)">Clothing Co.</text></svg>