<svg id="Layer_1" data-name="Layer 1" xmlns="http://www.w3.org/2000/svg" viewBox="0 0 500 500"><defs><style>.cls-1{fill:#f4fafb;}.cls-2{fill:#b3de21;}</style></defs><path class="cls-1" d="M228.79,35c11.64.15,23.29,0,34.9.52,25.7,1.21,50.09,7.91,73.45,18.53,2.46,1.11,4.67,2.84,7.52,3a59.71,59.71,0,0,0,14.59,8.2C376,76.57,392,89,406.21,103.46q8.75,10.89,17.48,21.78c6.85,8.49,11.24,18.57,17.65,27.34a2.13,2.13,0,0,0,1.19,2.32c.47,2,1,3.93,2.45,5.43l.15.35a2.32,2.32,0,0,0,1.11,2.31,2.17,2.17,0,0,0,1.16,2.4c1.88,5.73,3.4,11.61,6.74,16.76l.39,2L463,220.32l2,23.48-.18,17.55-3.66,29.17a376.56,376.56,0,0,1-15.28,46.87l-12.19,23a12.88,12.88,0,0,0-4.32,6.74,122.66,122.66,0,0,0-12.65,16.93c-3.81,4-7.66,7.84-10.7,12.44a51.87,51.87,0,0,0-10.79,10.75,67.75,67.75,0,0,0-12.44,10.66c-6,3.78-11.91,7.68-17.05,12.61-6.74,3-12.92,6.95-19.1,10.9l-.07.05a4.79,4.79,0,0,0-4,2.16.47.47,0,0,0-.71.23c-17.1,7.18-34.53,13.36-52.65,17.47l-23.5,3.09-23.29.55-23.49-2.28c-8.08.23-15.23-4.34-23.23-4.52-15.92-5.7-31.94-11.17-47-19-12.36-7.72-24.73-15.36-36-24.72-18.56-15.44-33.79-33.73-47-53.79a143.37,143.37,0,0,0-10.28-18.14,9,9,0,0,0-2.31-5.39q-4.42-11.64-8.84-23.26L38.39,290.6q-1.53-11.73-3-23.45-.16-11.67-.35-23.33.95-11.73,1.9-23.46,2-11.67,4-23.35,3.67-11.67,7.36-23.32c7.22-16,15.19-31.6,24.9-46.27l-.24-.3c1.44-.29,1.82-1.41,2.07-2.64h0a8,8,0,0,0,3.59-4.63l0,0a140.39,140.39,0,0,0,14.09-16.43,43.67,43.67,0,0,0,9.31-9.3C106.73,90,112.31,86.73,116,81.37c.9-.13,1.9-.1,2.26-1.24a9.69,9.69,0,0,0,4.62-3.61l0,0a323.71,323.71,0,0,1,54.9-29.42,1.92,1.92,0,0,0,2.47-1c9.94-2.47,19.9-4.86,29.81-7.41C216.28,37.12,222.8,37.38,228.79,35Zm37.33,194.47-1.5-.85c0-4.66-.21-9.32.06-14,.23-3.87-1.19-5-5-5-12.87.19-25.75.07-38.62.07-8,0-8,0-8,7.7,0,47.16,0,94.31-.19,141.47,0,4.6,1.58,5.48,5.74,5.41,13.26-.23,26.53-.37,39.78.06,5.45.17,6.35-1.76,6.31-6.66-.23-27.08-.08-54.17-.14-81.25a29.78,29.78,0,0,1,3.62-15.14c6.21-11,16.77-16,29.64-14.05,10.11,1.53,16.87,9,19.33,21.48a74.41,74.41,0,0,1,1.25,14.53c-.05,25.13.07,50.27-.12,75.4,0,4.31,1.09,5.74,5.54,5.65,13.46-.28,26.92-.32,40.37,0,4.86.12,5.78-1.61,5.75-6-.17-28.06-.08-56.12-.09-84.18a97.79,97.79,0,0,0-3.17-24.83c-5.74-21.79-18.62-36.93-41.14-41.61-22.92-4.76-43.51-.55-58.34,19.66A16.25,16.25,0,0,0,266.12,229.47Zm-132.78,57c0,24.15.07,48.3-.07,72.44,0,3.82.76,5.56,5.1,5.48,13.83-.25,27.67-.2,41.51,0,3.71.05,5.1-.89,5.09-4.85q-.18-72.44,0-144.87c0-3.87-1.25-5-5.05-4.93-13.25.2-26.51.3-39.75,0-5.19-.13-7,1.1-7,6.69C133.53,239.7,133.34,263.07,133.34,286.43Zm25.75-97.59c16.88-.06,29.07-11,29.18-26.23.11-16.15-12-27.45-29.31-27.32-17,.13-28.93,11.34-28.9,27.18C130.1,177.69,142.43,188.89,159.09,188.84Z"/><path class="cls-2" d="M266.12,229.47a16.25,16.25,0,0,1,1.11-2.06c14.83-20.21,35.42-24.42,58.34-19.66,22.52,4.68,35.4,19.82,41.14,41.61a97.79,97.79,0,0,1,3.17,24.83c0,28.06-.08,56.12.09,84.18,0,4.4-.89,6.13-5.75,6-13.45-.34-26.91-.3-40.37,0-4.45.09-5.57-1.34-5.54-5.65.19-25.13.07-50.27.12-75.4a74.41,74.41,0,0,0-1.25-14.53c-2.46-12.46-9.22-19.95-19.33-21.48-12.87-1.94-23.43,3.09-29.64,14.05a29.78,29.78,0,0,0-3.62,15.14c.06,27.08-.09,54.17.14,81.25,0,4.9-.86,6.83-6.31,6.66-13.25-.43-26.52-.29-39.78-.06-4.16.07-5.76-.81-5.74-5.41.2-47.16.16-94.31.19-141.47,0-7.7,0-7.7,8-7.7,12.87,0,25.75.12,38.62-.07,3.81-.06,5.23,1.11,5,5-.27,4.63-.06,9.29-.06,14Z"/><path class="cls-2" d="M133.34,286.43c0-23.36.19-46.73-.14-70.09-.07-5.59,1.77-6.82,7-6.69,13.24.33,26.5.23,39.75,0,3.8-.06,5.06,1.06,5.05,4.93q-.15,72.43,0,144.87c0,4-1.38,4.9-5.09,4.85-13.84-.18-27.68-.23-41.51,0-4.34.08-5.12-1.66-5.1-5.48C133.41,334.73,133.34,310.58,133.34,286.43Z"/><path class="cls-2" d="M159.09,188.84c-16.66,0-29-11.15-29-26.37,0-15.84,11.89-27.05,28.9-27.18,17.3-.13,29.42,11.17,29.31,27.32C188.16,177.83,176,188.78,159.09,188.84Z"/></svg>