<svg id="Layer_1" data-name="Layer 1" xmlns="http://www.w3.org/2000/svg" viewBox="0 0 649.01 320.24"><defs><style>.cls-1{fill:#fff;}</style></defs><path class="cls-1" d="M328.79,155.05c14.13-20.27,36.23-33.32,61.07-33.32,42.65,0,77.23,38.48,77.23,86,0,20.31-10.38,45.32-23.19,63.5-4.87,6.93-.48,17,7.43,17.07l51.28.14c8.08,0,15-6.49,16.28-15.38a228.77,228.77,0,0,0,2.17-31.49C521.06,125.25,433.46,31,325.39,31S129.71,125.25,129.71,241.52a229.23,229.23,0,0,0,1.89,29.39c1.15,8.89,7.94,15.53,16,15.69l60.4,1.13c8.2.16,12.63-10.47,7.35-17.44-13.67-18-25.22-42.56-25.22-63,0-47.47,34.58-85.95,77.24-85.95,24.85,0,47,13.07,61.1,33.37"/><path class="cls-1" d="M597.22,184.36C594,137,556.84,101.55,514.31,105.13a70.55,70.55,0,0,0-23.51,6.19c22.43,32.45,37,72.25,40,116.09a242.58,242.58,0,0,1-1.59,48.78C570.17,270.94,600.4,230.54,597.22,184.36Z"/><path class="cls-1" d="M159.5,111.49a69.9,69.9,0,0,0-23.65-5.5c-42.6-2.32-79,34.24-81.31,81.65-2.23,45.65,28,84.71,68.26,89.6a243.13,243.13,0,0,1-2.23-46.54C122.76,185.91,137,145,159.5,111.49Z"/><path class="cls-1" d="M321.23,255.79c0,4-2.77,7.31-6.2,7.31s-6.2-3.27-6.2-7.31,2.78-7.32,6.2-7.32S321.23,251.74,321.23,255.79Z"/><ellipse class="cls-1" cx="342.48" cy="255.79" rx="6.2" ry="7.32"/><path class="cls-1" d="M417.27,209a8.27,8.27,0,0,1-8.1-7c-1.37-8.63-9.24-15.14-18.29-15.14A18.47,18.47,0,0,0,373,200a8.21,8.21,0,0,1-10.08,5.77l-.07,0a8.4,8.4,0,0,1-5.65-10.34,35,35,0,0,1,68.19,3.85,8.35,8.35,0,0,1-6.79,9.6A8.45,8.45,0,0,1,417.27,209Z"/><path class="cls-1" d="M238.58,208.77a8.21,8.21,0,0,1-8.11-9.7,35,35,0,0,1,68.18-3.86A8.38,8.38,0,0,1,293,205.55a8.2,8.2,0,0,1-10.13-5.64l0-.11A18.44,18.44,0,0,0,265,186.61c-9.06,0-16.92,6.51-18.3,15.14A8.25,8.25,0,0,1,238.58,208.77Z"/></svg>