<svg id="Layer_1" data-name="Layer 1" xmlns="http://www.w3.org/2000/svg" xmlns:xlink="http://www.w3.org/1999/xlink" viewBox="0 0 500 500"><defs><style>.cls-1{fill:#fff;}.cls-2{fill:url(#linear-gradient);}.cls-3{fill:url(#linear-gradient-2);}.cls-4{fill:url(#linear-gradient-3);}.cls-5{fill:url(#linear-gradient-4);}.cls-6{fill:#72a842;}</style><linearGradient id="linear-gradient" x1="217.41" y1="286.98" x2="217.41" y2="100" gradientUnits="userSpaceOnUse"><stop offset="0" stop-color="#088486"/><stop offset="1" stop-color="#0fa0a3"/></linearGradient><linearGradient id="linear-gradient-2" x1="231.52" y1="400" x2="231.52" y2="108.41" gradientUnits="userSpaceOnUse"><stop offset="0" stop-color="#b5352e"/><stop offset="1" stop-color="#da4239"/></linearGradient><linearGradient id="linear-gradient-3" x1="367.05" y1="404.89" x2="332.55" y2="358.7" gradientUnits="userSpaceOnUse"><stop offset="0" stop-color="#088486"/><stop offset="0.25" stop-color="#0b9093"/><stop offset="0.61" stop-color="#0e9c9f"/><stop offset="0.96" stop-color="#0fa0a3"/></linearGradient><linearGradient id="linear-gradient-4" x1="269.68" y1="304" x2="269.68" y2="183.58" gradientUnits="userSpaceOnUse"><stop offset="0" stop-color="#c68331"/><stop offset="1" stop-color="#ec9b3b"/></linearGradient></defs><circle class="cls-1" cx="250" cy="250" r="250"/><path class="cls-2" d="M107.86,286.15c-1.57,1.67-4.52.64-4.52-1.58V199.88c0-28.75.3-57.5-.15-86.24-.16-10.16,4-13.73,14.75-13.64,48.87.41,97.76-.29,146.61.7,22.44.45,36.73,1.25,54.24,17,18.08,16.28,17,40.05-2.61,54.69A76.29,76.29,0,0,1,304,179.76c-10.44,5.11-21.73.56-25-10-5.45-17.42-9-25.88-28.56-28.94-28.45-4.44-57.08-2.62-85.66-2.8-9.18-.05-10.45,5.71-10.44,12.52,0,27.51-.41,55,.16,82.53.22,10.49-1.89,12.14-11.06,19.25C131.35,261.67,118.46,274.88,107.86,286.15Z"/><path class="cls-3" d="M327,108.7a.17.17,0,0,1,.2-.27c39.47,18.43,43.64,63.73,11.1,89.25-21.95,17.22-48.07,27.16-74.39,36.76-15.17,5.54-30.31,11.16-45.25,17.21C178.53,267.92,161,298.07,159,337.41c-.86,16.4-1.9,32.82-1.95,49.23,0,9.22-4.27,12-13.51,12.33-38.54,1.48-39.65,6.08-40.45-29.42-1.42-62.92,34.76-107.94,93-134,22.28-10,45.56-17.65,69.21-24.29a307.09,307.09,0,0,0,49.16-17.93C357.76,172.71,363.28,142.87,327,108.7Z"/><path class="cls-4" d="M308.76,371.1c-19-20.86-34.88-38.46-54.6-58.84-10-10.33-16.17-13.79,5.8-13.91,25-.14,48.29-4,69.26,15.48,24.37,25.36,44.57,47,67.9,72.05,2.52,2.72,7,5.5,5.61,9.11-.59,1.47-6.28,2.78-13.87,2.77C325.94,397.66,328.67,392.93,308.76,371.1Z"/><path class="cls-5" d="M176.89,303.77c-.46.52-1.37.07-1.12-.57,7.86-20,24.6-32.41,44-42.33,23.65-12.09,49.62-19,74.48-28.33,27.58-10.38,53.61-22.62,68.18-48.64a.64.64,0,0,1,1.2.3c-2.27,29.82-20.94,48.34-49.45,58.94-24.49,9.11-50,15.9-74.65,24.59C216.27,275.93,193.51,285.28,176.89,303.77Z"/><path class="cls-6" d="M195.6,299.33c-.7.23-1.22-.63-.63-1.05,17.67-12.57,38.23-18.51,59.09-23.84,24.19-6.18,48.81-11.05,71.39-21.94,10-4.82,18.77-11.21,29.47-19.13.43-.32,1.08.09.9.57-6.19,17.2-18.15,26.29-31.95,33.75-21.44,11.58-45.51,14.83-69.33,19.18C234.8,290.47,214.76,293.11,195.6,299.33Z"/></svg>