<svg id="Layer_1" data-name="Layer 1" xmlns="http://www.w3.org/2000/svg" viewBox="0 0 500 500"><defs><style>.cls-1{fill:#056876;}.cls-2{fill:#fff;}.cls-3{fill:#d84238;}.cls-4{fill:#eb9a3b;}.cls-5{fill:#71a642;}</style></defs><rect class="cls-1" x="0.06" y="266.34" width="233.3" height="233.3"/><path class="cls-2" d="M124.89,429.33c23.35-18.18,31-47.68,31.74-66l-1.91,1.06c-6.86,3.85-14,6.86-22.06,6.65a21.11,21.11,0,0,1-9.48-2.46,5.75,5.75,0,0,1-1.72-1.45c12.57,1.22,23.1-2.17,30.61-12.85-1.39.47-2.77,1-4.16,1.41-8,2.66-16.14,4.33-24.49,2.22a15.68,15.68,0,0,0-8.16,0c-7.51,1.91-14.93.65-22.22-1.55-2.13-.65-4.22-1.39-6.4-1.89,7.57,10.43,18.07,13.87,30.63,12.37l.08.5a20,20,0,0,1-2,1.32c-7,3.51-14.09,2.89-21.12.35-3.51-1.27-6.82-3.12-10.21-4.72-.58-.27-1.13-.59-1.94-1a101.75,101.75,0,0,0,8.83,36.35c5.26,11.49,12.47,21.55,22.63,29.38l-.31.65a76.4,76.4,0,0,1-7.55-1.7c-6.34-2.11-11.48-6.1-16.2-10.68a92,92,0,0,1-14.42-18.46,2.34,2.34,0,0,0-.79-.84c1.3,14.39,8.39,25.91,18,36.43-.7-.22-1.42-.39-2.09-.66-13.29-5.41-22.49-15.11-28.94-27.61-4.87-9.43-7.13-19.6-8.06-30.08C51.9,362,52.51,348,56.64,334.32A116.75,116.75,0,0,1,61.23,323a14.58,14.58,0,0,1,1.28-2c.94,1.18,1.65,2.19,2.47,3.1,12.78,14,27.92,24.51,46.12,30.46,7.14,2.33,13.9,1.12,20.68-1.34,10-3.65,19-9.16,27.4-15.57a81.45,81.45,0,0,0,16.29-15.72,11.55,11.55,0,0,1,1-.94c1.16,2.34,2.34,4.44,3.25,6.64a82.56,82.56,0,0,1,5.84,25.44c1,13.1.71,26.14-2.67,38.94-3.93,14.84-11.64,27.24-24.28,36.32a39.09,39.09,0,0,1-12.79,6.17,76.81,76.81,0,0,0,12.6-16.67,46.66,46.66,0,0,0,5.94-19.93c-.71,1.09-1.41,2.19-2.13,3.27-6.2,9.43-13.36,17.94-23.11,24C135,427.71,129.15,429.53,124.89,429.33Z"/><path class="cls-2" d="M199.47,318.62c24.1,34.62,23.75,89.87-15.26,125.86-39.19,36.14-99.74,34.88-137-2.71-37-37.34-34.95-91.34-12.23-123.15-12.06,24.17-13.9,49.05-4.84,74.49a88.79,88.79,0,0,0,35.34,45,92.67,92.67,0,0,0,134-119.53Z"/><path class="cls-2" d="M75.18,299.85c5.46-.44,10.71,4.42,10.69,10.76,0,5.69-5.17,10.58-11,10.48a10.85,10.85,0,0,1-10.68-10.95C64.35,304.58,69.13,299.37,75.18,299.85Z"/><path class="cls-2" d="M163.77,299.84a10.58,10.58,0,0,1,10.79,10.69c0,5.66-5.11,10.63-10.9,10.56a10.87,10.87,0,0,1-10.77-10.87C152.92,304.83,157.63,299.42,163.77,299.84Z"/><rect class="cls-3" x="266.7" y="266.34" width="233.3" height="233.3"/><path class="cls-2" d="M435.35,410.84c-6-1.48-10.46-8.11-17.84-6.31l-23.44-20c3.38-5.09,5.53-11.85,3.11-18.67A30.68,30.68,0,0,0,389,353.38c-8-7-20-6.42-28.25.36-9.26,7.56-10.57,18.14-4.47,30.54L332.6,404.82c-11.39-10.64-10.69-34.93,2.46-57.65a7.47,7.47,0,0,0-1-1.22c-9.47-8.06-19-16.11-27.56-23.42-5.65.58-10.57,2.09-15.12,1.33-9.65-1.59-15.15-10.9-13.22-20.64,1.67-8.45,10.78-14.86,19.23-13.53,9.61,1.51,16.48,10.06,14.61,19.69-1,5,.57,7.46,4.12,10.3,8.41,6.75,16.49,13.9,25,21.12,19.55-15.42,40.27-17.29,62.48-4.48,7.6-8.83,15.27-17.59,22.63-26.59.76-.92.08-3.58-.67-5.07-3.78-7.6-3.46-14.92,1.5-21.72,5.15-7.06,12.46-9.54,20.84-7.62,8,1.82,12.94,7.13,14.95,15.12,3.6,14.33-9.44,26.94-24.66,24-1.65-.32-3.54.36-5.25.82-.58.16-.95,1.06-1.43,1.62l-20.63,24c3.9,6.45,8.12,12.23,11.09,18.59a43.52,43.52,0,0,1,2.44,31c-1.11,3.84-.11,5.62,3.36,7.09,4,1.7,7.82,3.89,11.65,5.84,9.58-10.19,22.5-14.08,35.49-4.61a24.69,24.69,0,0,1,7.34,30.94,25.08,25.08,0,0,1-29,13.09C440.31,439.49,434.27,428.87,435.35,410.84Z"/><path class="cls-2" d="M327.57,438.4l14.31-21-3.46-4.29c6.41-10,14.24-17.95,26-21.42,1.83-.54,4.35-2.05,4.67-3.52s-1.33-3.89-2.76-5.17c-7-6.27-7.84-15.31-1.73-21.75a14.42,14.42,0,0,1,21.41.11c6.06,6.48,5.16,15.39-1.89,21.76-1.42,1.27-2.79,3.56-2.65,5.27.09,1.22,2.57,2.71,4.26,3.27,11.48,3.78,19.84,11.25,26.17,21.22-12.19,16.78-35,20.23-63.16,9.59-3.76,5.52-7.41,11.2-11.4,16.63-2.09,2.84-2.46,4.78-.17,8,6.53,9.28,4.59,21.77-3.92,29.24a22.49,22.49,0,0,1-34.89-27,22.31,22.31,0,0,1,24.19-12C324.11,437.65,325.69,438,327.57,438.4Z"/><path class="cls-4" d="M33.45,232.27H.32V-1h233.3v233.3H206.09c.31-10.87.7-21.82-1.84-32.45-2.13-8.93-5.37-17.6-8.06-26.4-2.65-8.64-6.71-16.38-14.1-21.92-1.21-.9-3-2-4.22-1.73a5,5,0,0,1-4.76-1.54c-8-7.38-16-14.7-23.89-22.1a8.92,8.92,0,0,1-1.78-2.92c-.85-1.91-1.22-4.12-2.39-5.77-2.81-4-2.05-7.81-.22-11.74a3.08,3.08,0,0,1,1.47-1.58,10.06,10.06,0,0,0,6.33-5.84,74.85,74.85,0,0,0,3.56-12.38A6.88,6.88,0,0,0,154.92,81c-.66-.87-2.64-.75-4.13-1.09a19.83,19.83,0,0,0,.32-4.07c-.41-3.83-.93-7.67-1.63-11.47A3,3,0,0,1,151,60.74c5.29-3.25,10.45-6.7,15.73-10,6.12-3.79,11.94-8.1,19.1-10,1.83-.47,3.43-1.82,5.69-3.07a28.52,28.52,0,0,0-3.14-2c-3.62-1.6-7.18-3.36-10.91-4.63q-37-12.6-74.19-25a2.84,2.84,0,0,0-2.09.29,76.7,76.7,0,0,0-6.6,4.35q-19.18,14.6-38.25,29.3a52.41,52.41,0,0,0-6,5.86c-1.15,1.22-.9,2.28.88,2.62,1.52.3,3.06.44,4.57.75,5.82,1.2,5.82-.2,6,7.19.18,9.4.49,18.79.62,28.19.15,10.54.29,21.09.2,31.63,0,3.75-.33,3.69,2.91,5.28a6.85,6.85,0,0,0,8.11-2.22c.43.22,2.81-9,3.13-9.11-3.28-19.1-6.56-38.21-9.88-57.52a9.13,9.13,0,0,1,1.88,0c5.51,1.56,11,3.15,16.52,4.73,1.27.36,1.25,1.19,1.09,2.35-.65,4.51-1.27,9-1.64,13.59-.24,2.92,0,5.88,0,8.78-3.16,1.35-3.27,1.63-2,4.68.29.71.38,1.49.63,2.22,1.25,3.64,2.53,7.26,3.79,10.89a14.88,14.88,0,0,1,.84,2.63,32.56,32.56,0,0,0,9.69,19.65c1.24,1.19.75,4.22-.93,5.09-5,2.6-10.07,5.17-15.2,7.53a7.63,7.63,0,0,1-4.25.32C70.31,134,66.9,135.7,64,142.07c-.29.63-.51,1.3-.81,1.92-2.11,4.4-3.91,9-6.41,13.14-10.79,18-20.31,36.49-22.66,57.74C33.45,220.63,33.64,226.47,33.45,232.27Z"/><path class="cls-2" d="M33.45,232.27c.19-5.8,0-11.64.64-17.4,2.35-21.25,11.87-39.74,22.66-57.74,2.5-4.16,4.3-8.74,6.41-13.14.3-.62.52-1.29.81-1.92,2.93-6.37,6.34-8.06,13.26-6.82a7.63,7.63,0,0,0,4.25-.32c5.13-2.36,10.18-4.93,15.2-7.53,1.68-.87,2.17-3.9.93-5.09a32.56,32.56,0,0,1-9.69-19.65,14.88,14.88,0,0,0-.84-2.63c-1.26-3.63-2.54-7.25-3.79-10.89-.25-.73-.34-1.51-.63-2.22-1.25-3-1.14-3.33,2-4.68,0-2.9-.19-5.86,0-8.78.37-4.55,1-9.08,1.64-13.59.16-1.16.18-2-1.09-2.35-5.5-1.58-11-3.17-16.52-4.73a9.13,9.13,0,0,0-1.88,0c3.32,19.31,6.6,38.42,9.88,57.52l-1,.21L73.56,100l-.55.1c.51,3.35,1.14,6.68,1.52,10s-.47,9.48-.9,9.26a6.85,6.85,0,0,1-8.11,2.22c-3.24-1.59-2.95-1.53-2.91-5.28.09-10.54,0-21.09-.2-31.63-.13-9.4-.44-18.79-.62-28.19-.14-7.39-.14-6-6-7.19-1.51-.31-3-.45-4.57-.75-1.78-.34-2-1.4-.88-2.62a52.41,52.41,0,0,1,6-5.86q19-14.74,38.25-29.3a76.7,76.7,0,0,1,6.6-4.35,2.84,2.84,0,0,1,2.09-.29q37.12,12.41,74.19,25c3.73,1.27,7.29,3,10.91,4.63a28.52,28.52,0,0,1,3.14,2c-2.26,1.25-3.86,2.6-5.69,3.07-7.16,1.86-13,6.17-19.1,10-5.28,3.27-10.44,6.72-15.73,10a3,3,0,0,0-1.53,3.61c.7,3.8,1.22,7.64,1.63,11.47a19.83,19.83,0,0,1-.32,4.07c1.49.34,3.47.22,4.13,1.09a6.88,6.88,0,0,1,1.27,4.92,74.85,74.85,0,0,1-3.56,12.38,10.06,10.06,0,0,1-6.33,5.84,3.08,3.08,0,0,0-1.47,1.58c-1.83,3.93-2.59,7.77.22,11.74,1.17,1.65,1.54,3.86,2.39,5.77a8.92,8.92,0,0,0,1.78,2.92c7.93,7.4,15.94,14.72,23.89,22.1a5,5,0,0,0,4.76,1.54c1.27-.23,3,.83,4.22,1.73,7.39,5.54,11.45,13.28,14.1,21.92,2.69,8.8,5.93,17.47,8.06,26.4,2.54,10.63,2.15,21.58,1.84,32.45Z"/><rect class="cls-5" x="266.7" y="-1.03" width="233.3" height="233.3"/><path class="cls-2" d="M403.65,165c-1-.52-2-1.08-3-1.58-4.71-2.28-9.47-4.48-14.11-6.9-.72-.38-.9-1.79-1.33-2.72a14.93,14.93,0,0,1,2.82-.65c.56,0,1.15.51,1.72.79,5,2.42,9.9,5.12,15.05,7.16a17.74,17.74,0,0,0,8.08.81c2.83-.29,3.6-2.9,4.2-5.41s-1.29-2.86-2.69-3.7c-1.74-1-3.52-2-5.28-3-4.62-2.68-9.3-5.29-13.82-8.13-.93-.58-1.3-2-1.93-3.1,1.31,0,2.61-.06,3.91,0,.28,0,.55.31.83.47,6.67,3.85,13.38,7.63,20,11.59,3,1.78,5.87,1.23,8.54-.15a5.43,5.43,0,0,0,.22-9.65q-10.73-6.45-21.46-12.87a14.26,14.26,0,0,1-3-1.9,8.15,8.15,0,0,1-1.15-2.57c1-.22,2.09-.78,3-.56a13.89,13.89,0,0,1,3.34,1.88c8.06,4.85,16.11,9.74,24.2,14.54,3.36,2,7.6,1.28,9.59-1.42,2.26-3.08,1.75-6.42-1.46-9.4-.79-.72-1.61-1.41-2.45-2.08-16.32-13.06-33.31-25.13-52.05-34.56-5.33-2.69-9.33-1.93-13.06,2.66-5.3,6.52-11.64,11.31-20.38,12.06-5.61.48-8.43-2.2-7.65-7.71a15.42,15.42,0,0,1,2.06-5.63c2.76-4.54,5.78-8.92,8.87-13.62a89.31,89.31,0,0,1-9.88-1.86,93.5,93.5,0,0,1-9.39-3.93c-7.52,13.35-15.18,26.93-22.77,40.56a2.48,2.48,0,0,0,.16,2.22c2.14,2.79,4.42,5.46,6.7,8.24,2.83-3,6.21-4.46,9.71-2.78,3.07,1.49,5.6,4.11,8.43,6.28,2.2-3.38,5.49-6.52,10.89-4.86,6.1,1.86,8.44,6.42,8.22,12.47,7.65,1.17,11,5.77,11,13.07a11.23,11.23,0,0,1,10.13,6.48c2.22,4.39.93,8.26-2.29,12.2,4.82,1.19,9.1,2.55,13.5,3.26C396.79,172.06,400.83,170.21,403.65,165Z"/><path class="cls-2" d="M454.79,114.78C447,101,439.61,87.76,432.07,74.6c-.38-.67-1.83-1-2.78-1-3.69,0-7.6,1.12-11,.26-14.41-3.62-28.86-4.91-43.55-2.43-4,.68-8.73.43-11.47,4C358.4,81.87,354,88.6,349.52,95.24a10.23,10.23,0,0,0-1.45,3.84c-.55,3,.32,4,3.42,3.6,2.61-.38,5.58-.72,7.6-2.17a82.78,82.78,0,0,0,11.39-10.12c2.87-3,10.45-5.11,14.13-3.28,19.82,9.88,38,22.3,55.07,36.3,1.74,1.42,3.1,1.69,4.75.28C447.83,120.79,451.21,117.86,454.79,114.78Z"/><path class="cls-2" d="M336.37,65a14.09,14.09,0,0,0-2-1.8c-3.54-2.21-7.17-4.28-10.66-6.55-1.83-1.18-2.79-.72-3.78,1.06q-14,25-28.18,50c-1.06,1.87-.65,2.84,1.06,3.83,3.43,2,6.87,4,10.12,6.2,2.26,1.55,3.34,1.11,4.63-1.22,9.1-16.35,18.32-32.63,27.5-48.94C335.47,66.85,335.82,66.07,336.37,65Z"/><path class="cls-2" d="M353.37,134.77c0-3.93-1.92-6.49-5-7.59s-4.88.27-6.53,2.56c-3.69,5.11-7.48,10.15-11.13,15.28-2.25,3.16-1.47,6.91,1.75,9.26s6.08,1.73,8.53-1.57c3.69-5,7.37-10,11-15A14.58,14.58,0,0,0,353.37,134.77Z"/><path class="cls-2" d="M318.42,136.16a6.12,6.12,0,0,0,4.8,5.91,7.2,7.2,0,0,0,5.43-1.12c1.87-1.46,3.18-3.73,4.49-5.81,1.66-2.65.81-5.18-1-7.39a6.11,6.11,0,0,0-6.92-2.13C322.93,126.34,318.38,133.24,318.42,136.16Z"/><path class="cls-2" d="M403.65,165c-2.82,5.22-6.86,7.07-14,5.93-4.4-.71-8.68-2.07-13.5-3.26,3.22-3.94,4.51-7.81,2.29-12.2A11.23,11.23,0,0,0,368.3,149c0-7.3-3.37-11.9-11-13.07.22-6-2.12-10.61-8.22-12.47-5.4-1.66-8.69,1.48-10.89,4.86-2.83-2.17-5.36-4.79-8.43-6.28-3.5-1.68-6.88-.18-9.71,2.78-2.28-2.78-4.56-5.45-6.7-8.24a2.48,2.48,0,0,1-.16-2.22c7.59-13.63,15.25-27.21,22.77-40.56a93.5,93.5,0,0,0,9.39,3.93,89.31,89.31,0,0,0,9.88,1.86c-3.09,4.7-6.11,9.08-8.87,13.62a15.42,15.42,0,0,0-2.06,5.63c-.78,5.51,2,8.19,7.65,7.71,8.74-.75,15.08-5.54,20.38-12.06,3.73-4.59,7.73-5.35,13.06-2.66,18.74,9.43,35.73,21.5,52.05,34.56.84.67,1.66,1.36,2.45,2.08,3.21,3,3.72,6.32,1.46,9.4-2,2.7-6.23,3.41-9.59,1.42-8.09-4.8-16.14-9.69-24.2-14.54a13.89,13.89,0,0,0-3.34-1.88c-.88-.22-2,.34-3,.56a8.15,8.15,0,0,0,1.15,2.57,14.26,14.26,0,0,0,3,1.9q10.73,6.44,21.46,12.87a5.43,5.43,0,0,1-.22,9.65c-2.67,1.38-5.56,1.93-8.54.15-6.6-4-13.31-7.74-20-11.59-.28-.16-.55-.47-.83-.47-1.3,0-2.6,0-3.91,0,.63,1.06,1,2.52,1.93,3.1,4.52,2.84,9.2,5.45,13.82,8.13,1.76,1,3.54,2,5.28,3,1.4.84,3.27,1.26,2.69,3.7s-1.37,5.12-4.2,5.41a17.74,17.74,0,0,1-8.08-.81c-5.15-2-10-4.74-15.05-7.16-.57-.28-1.16-.81-1.72-.79a14.93,14.93,0,0,0-2.82.65c.43.93.61,2.34,1.33,2.72,4.64,2.42,9.4,4.62,14.11,6.9C401.64,163.91,402.65,164.47,403.65,165Z"/><path class="cls-2" d="M454.79,114.78c-3.58,3.08-7,6-10.36,8.91-1.65,1.41-3,1.14-4.75-.28-17.1-14-35.25-26.42-55.07-36.3-3.68-1.83-11.26.27-14.13,3.28a82.78,82.78,0,0,1-11.39,10.12c-2,1.45-5,1.79-7.6,2.17-3.1.45-4-.57-3.42-3.6a10.23,10.23,0,0,1,1.45-3.84c4.48-6.64,8.88-13.37,13.72-19.76,2.74-3.62,7.44-3.37,11.47-4,14.69-2.48,29.14-1.19,43.55,2.43,3.43.86,7.34-.23,11-.26.95,0,2.4.33,2.78,1C439.61,87.76,447,101,454.79,114.78Z"/><path class="cls-2" d="M462.21,119.13a9.91,9.91,0,0,1-1.53-1.71Q446.4,92.13,432.14,66.84c-1-1.71-.54-2.71,1.05-3.65,3.59-2.12,7.17-4.26,10.68-6.52,1.73-1.11,2.76-1,3.81.92q14,25.07,28.15,50.06c.85,1.5,1.2,2.61-.65,3.68-3.89,2.24-7.69,4.65-11.53,7C463.29,118.53,462.92,118.73,462.21,119.13Z"/><path class="cls-2" d="M336.37,65c-.55,1.1-.9,1.88-1.31,2.62-9.18,16.31-18.4,32.59-27.5,48.94-1.29,2.33-2.37,2.77-4.63,1.22-3.25-2.24-6.69-4.22-10.12-6.2-1.71-1-2.12-2-1.06-3.83q14.17-25,28.18-50c1-1.78,1.95-2.24,3.78-1.06,3.49,2.27,7.12,4.34,10.66,6.55A14.09,14.09,0,0,1,336.37,65Z"/><path class="cls-2" d="M353.37,134.77a14.58,14.58,0,0,1-1.39,2.94c-3.59,5-7.27,10-11,15-2.45,3.3-5.45,3.82-8.53,1.57s-4-6.1-1.75-9.26c3.65-5.13,7.44-10.17,11.13-15.28,1.65-2.29,3.57-3.62,6.53-2.56S353.38,130.84,353.37,134.77Z"/><path class="cls-2" d="M364.34,147.67a11.57,11.57,0,0,1-1.19,2.8q-4.22,6-8.64,11.92c-2.27,3-5.07,3.47-8.05,1.44s-4.31-5.92-2.48-8.62a134.78,134.78,0,0,1,10.13-13.57c1-1.18,4-1.53,5.7-1C362.6,141.39,364.23,143.79,364.34,147.67Z"/><path class="cls-2" d="M365.47,173.14a7.09,7.09,0,0,1-6.88-4,5.62,5.62,0,0,1,.6-6.57c1.83-2.36,3.48-4.85,5.28-7.23a5.4,5.4,0,0,1,7.59-1.53c3,1.75,4.71,5.59,3.16,8.15A96,96,0,0,1,367.9,172C367.27,172.82,365.86,173,365.47,173.14Z"/><path class="cls-2" d="M318.42,136.16c0-2.92,4.51-9.82,6.78-10.54a6.11,6.11,0,0,1,6.92,2.13c1.83,2.21,2.68,4.74,1,7.39-1.31,2.08-2.62,4.35-4.49,5.81a7.2,7.2,0,0,1-5.43,1.12A6.12,6.12,0,0,1,318.42,136.16Z"/></svg>